PathFileType	4	(X/Y/Z)	Kaydara																																																																																																																									
DataRate	CameraRate	NumFrames	NumMarkers	Units	OrigDataRate	OrigDataStartFrame	OrigNumFrames																																																																																																																					
30	30	6	41	mm	30	44	345																																																																																																																					
Frame#	Time	NABA_LFHD			NABA_RFHD			NABA_LBHD			NABA_RBHD			NABA_LFTShould			NABA_RFTShould			NABA_LRRShould			NABA_RRRShould			NABA_T10			NABA_STRN			NABA_TRUN			NABA_LSHO			NABA_LUPA			NABA_LELB			NABA_LFRM			NABA_LWRA			NABA_LWRB			NABA_LFIN			NABA_RSHO			NABA_RUPA			NABA_RELB			NABA_RFRM			NABA_RWRA			NABA_RWRB			NABA_RFIN			NABA_LFWT			NABA_RFWT			NABA_LBWT			NABA_RBWT			NABA_LTHI			NABA_LKNE			NABA_LSHN			NABA_LANK			NABA_LHEE			NABA_LTOE			NABA_RTHI			NABA_RKNE			NABA_RSHN			NABA_RANK			NABA_RHEE			NABA_RTOE		
		X1	Y1	Z1	X2	Y2	Z2	X3	Y3	Z3	X4	Y4	Z4	X5	Y5	Z5	X6	Y6	Z6	X7	Y7	Z7	X8	Y8	Z8	X9	Y9	Z9	X10	Y10	Z10	X11	Y11	Z11	X12	Y12	Z12	X13	Y13	Z13	X14	Y14	Z14	X15	Y15	Z15	X16	Y16	Z16	X17	Y17	Z17	X18	Y18	Z18	X19	Y19	Z19	X20	Y20	Z20	X21	Y21	Z21	X22	Y22	Z22	X23	Y23	Z23	X24	Y24	Z24	X25	Y25	Z25	X26	Y26	Z26	X27	Y27	Z27	X28	Y28	Z28	X29	Y29	Z29	X30	Y30	Z30	X31	Y31	Z31	X32	Y32	Z32	X33	Y33	Z33	X34	Y34	Z34	X35	Y35	Z35	X36	Y36	Z36	X37	Y37	Z37	X38	Y38	Z38	X39	Y39	Z39	X40	Y40	Z40	X41	Y41	Z41
																																																																																																																												
44	1.443	239.95863	1517.4437	-1788.5611	69.09961	1482.69302	-1782.49878	249.8707	1582.37457	-1895.97534	34.637	1536.38702	-1860.40329	230.50282	1336.69769	-1937.83356	95.05168	1328.27637	-1935.32578	225.52187	1393.98499	-2053.19321	76.08619	1387.44202	-2041.00204	159.59368	1231.04065	-2129.0152	164.60598	1276.40388	-1892.17102	168.39155	1178.02971	-1846.20193	327.34825	1358.17429	-1992.31598	379.26666	1119.9839	-2032.89063	387.18334	1033.65227	-2008.3905	377.97302	962.14165	-2030.46906	321.91963	810.41779	-1953.09006	392.09904	815.06073	-1955.15015	369.21459	757.60399	-1910.98572	-1.65101	1350.69901	-1974.44275	-52.67043	1141.9297	-2038.4668	-68.79426	1019.27956	-1990.7608	-68.06348	925.8091	-1981.4325	10.02057	805.02884	-1908.55927	-62.16898	791.33842	-1902.70355	-39.83219	754.72748	-1873.76175	293.75252	954.87305	-1944.20395	26.36081	954.49547	-1939.8262	235.01448	1018.60001	-2110.50919	73.27064	1032.49329	-2110.44327	289.98262	657.48055	-2088.77686	293.6788	505.80879	-2037.52975	246.34453	308.30362	-2021.54251	273.29838	160.40583	-2096.67877	213.91069	112.10948	-2148.81821	254.7644	77.73912	-1966.76407	27.30435	670.78323	-2086.47385	41.80878	503.89553	-1978.21686	57.20715	333.47431	-2008.39142	50.12573	142.97755	-2077.995	101.24224	98.14382	-2148.39203	81.28656	76.61952	-1946.40549
45	1.477	240.02836	1517.35947	-1788.09586	69.02128	1482.67166	-1782.3584	249.98335	1582.29904	-1895.51926	34.71142	1536.39526	-1860.07828	230.7452	1336.74698	-1937.47635	95.1314	1328.26523	-1935.08636	225.68161	1393.96362	-2052.86835	76.25931	1387.42188	-2040.69412	159.79243	1231.00494	-2128.60825	164.59089	1276.40182	-1891.83517	168.31108	1178.032	-1845.91095	327.45476	1357.99149	-1991.77765	379.35535	1119.98032	-2032.73224	387.31476	1033.63258	-2008.32825	378.0648	962.13974	-2030.40802	321.95457	810.48904	-1952.77496	392.06219	815.01869	-1955.05539	369.12533	757.57439	-1910.89951	-1.56186	1350.73868	-1974.26727	-52.5572	1142.00127	-2038.29437	-68.79508	1019.22371	-1990.46799	-68.08125	925.89211	-1981.1821	10.11016	805.03883	-1908.56873	-62.17556	791.48773	-1902.31049	-39.78949	754.91829	-1873.33267	293.78334	954.8484	-1943.6496	26.36248	954.46091	-1939.49341	235.15167	1018.58177	-2109.98138	73.44693	1032.47025	-2110.01556	290.08209	657.51511	-2088.36365	293.71611	505.79819	-2037.21375	246.31655	308.29546	-2021.3504	273.32605	160.44176	-2096.50681	213.948	112.13548	-2148.76205	254.76114	77.73885	-1966.754	27.3607	670.79872	-2086.26968	41.81783	503.89969	-1978.1337	57.20271	333.43521	-2008.32779	50.14346	142.9719	-2077.98843	101.27952	98.14877	-2148.40073	81.29101	76.62457	-1946.39557
46	1.51	240.07103	1517.34024	-1787.55615	69.96715	1482.28302	-1780.83786	250.172	1582.28745	-1895.0708	34.83015	1536.45554	-1859.70306	230.94513	1336.76483	-1936.93787	95.24861	1328.26935	-1934.6904	225.86332	1393.96149	-2052.32147	76.41627	1387.43103	-2040.3157	159.98479	1230.97458	-2128.15552	164.57689	1276.37558	-1891.09467	168.32888	1178.08105	-1845.47287	327.62001	1358.06213	-1991.34186	379.40605	1119.98917	-2032.34756	387.37968	1033.60001	-2008.00903	378.11729	962.16225	-2030.18036	321.75392	810.74051	-1952.67059	392.12852	814.96109	-1954.95239	369.14623	757.44392	-1910.87555	-1.44922	1350.77286	-1973.96332	-52.49979	1142.03407	-2038.03558	-68.69555	1019.26743	-1990.05127	-68.11353	925.92255	-1980.78339	10.12398	805.35065	-1907.95563	-62.25974	791.56548	-1901.74072	-39.95174	755.04761	-1872.72812	293.76202	954.80797	-1943.12912	26.41877	954.50859	-1939.20807	235.29186	1018.62808	-2109.51584	73.61202	1032.5563	-2109.65897	290.19461	657.51961	-2088.02979	293.75385	505.82138	-2036.9754	246.33135	308.28894	-2021.16928	273.33416	160.39593	-2096.38992	213.95487	112.17096	-2148.75031	254.74689	77.73183	-1966.74408	27.45421	670.87914	-2086.17844	41.86739	503.88863	-1978.16238	56.84177	333.34663	-2007.85019	50.11919	142.9834	-2077.93579	101.28489	98.15374	-2148.39066	81.26218	76.60821	-1946.38794
47	1.543	240.13346	1517.47543	-1787.02591	69.44876	1482.67563	-1781.05057	250.29482	1582.24747	-1894.4873	34.9089	1536.48926	-1859.25949	231.09371	1336.70792	-1936.3385	95.45077	1328.21671	-1934.1185	226.06585	1393.89542	-2051.70349	76.61493	1387.38937	-2039.75922	160.18476	1230.9314	-2127.58469	164.60194	1276.31683	-1890.49088	168.30215	1177.95776	-1844.8967	327.74281	1357.87735	-1990.51544	379.46274	1119.92279	-2031.81686	387.40414	1033.5125	-2007.4707	378.1538	962.09938	-2029.77402	321.78925	810.72853	-1952.4118	392.25273	814.78462	-1954.81155	369.25636	757.17995	-1910.80185	-1.29887	1350.77972	-1973.45886	-52.42551	1142.04094	-2037.53235	-68.64843	1019.27223	-1989.47906	-68.14744	925.97702	-1980.25986	10.11229	805.40092	-1907.75848	-62.35948	791.69792	-1901.1972	-40.11104	755.15114	-1872.13501	293.88519	954.748	-1942.71317	26.35078	954.41429	-1938.99323	235.45174	1018.6393	-2109.04572	73.75241	1032.60536	-2109.28772	290.28923	657.49008	-2087.72247	293.76911	505.74581	-2036.77582	246.28853	308.24701	-2021.0498	273.30093	160.35412	-2096.38123	213.99359	112.15682	-2148.73779	254.72651	77.73716	-1966.75827	27.49994	670.94574	-2086.12198	41.94041	503.91659	-1978.28339	57.18624	333.3971	-2008.25653	50.15437	142.9657	-2077.97531	101.28264	98.14764	-2148.39157	81.2651	76.63461	-1946.3826
48	1.577	240.17941	1517.62726	-1786.3031	70.18827	1482.51846	-1779.561	250.38609	1582.21909	-1893.89267	34.97308	1536.53168	-1858.8089	231.21201	1336.56937	-1935.57205	95.55417	1328.16589	-1933.48145	226.24701	1393.80173	-2050.84976	76.80676	1387.38571	-2039.06281	160.38252	1230.98137	-2126.99081	164.77797	1276.16692	-1890.04654	168.39048	1177.76108	-1844.30099	327.99149	1357.86163	-1989.81812	379.62952	1119.80858	-2031.07391	387.47406	1033.40324	-2006.82999	378.25645	962.02812	-2029.2215	321.8898	810.57823	-1952.27341	392.37682	814.61929	-1954.57382	369.44439	756.90979	-1910.69885	-1.1099	1350.75912	-1972.78336	-52.38552	1142.10442	-2036.8985	-68.61899	1019.2881	-1988.89481	-68.15436	925.99327	-1979.71756	10.03869	805.51369	-1907.23312	-62.4277	791.72745	-1900.67307	-40.22825	755.15503	-1871.58112	294.00749	954.70505	-1941.96106	26.50779	954.43779	-1938.55698	235.60938	1018.64304	-2108.58047	73.91447	1032.66998	-2108.86536	290.38054	657.47681	-2087.49619	293.83165	505.76443	-2036.69662	246.23522	308.13776	-2020.96619	273.34511	160.37624	-2096.27136	213.99971	112.14704	-2148.7355	254.70261	77.72435	-1966.7627	27.58525	670.9436	-2086.02051	41.96081	503.93333	-1978.33237	56.8594	333.35613	-2007.94327	50.1107	143.03617	-2078.02246	101.24476	98.15042	-2148.41965	81.25477	76.60415	-1946.40228
49	1.61	240.15688	1517.72934	-1785.44296	69.20881	1483.11005	-1780.03571	250.5261	1582.21222	-1893.13141	35.07293	1536.52069	-1858.17352	231.5349	1336.51016	-1934.76395	95.82921	1328.03253	-1932.72659	226.57948	1393.88336	-2050.10956	77.05935	1387.40417	-2038.27301	160.57302	1231.07765	-2126.29105	164.86431	1275.96542	-1889.37622	168.5321	1177.54799	-1843.68195	328.17631	1357.74307	-1988.89633	379.80881	1119.68338	-2030.23132	387.59033	1033.27957	-2006.10916	378.42163	961.96007	-2028.64304	322.11464	810.34576	-1952.07062	392.50565	814.43703	-1954.17633	369.54056	756.66061	-1910.46082	-0.89426	1350.73975	-1972.02621	-52.26699	1142.11838	-2036.17249	-68.55741	1019.33937	-1988.33923	-68.13409	926.01814	-1979.12659	9.99344	805.47745	-1906.8515	-62.48458	791.69907	-1900.15762	-40.23519	755.08362	-1871.09344	294.10564	954.60632	-1941.59943	26.56054	954.35539	-1938.16299	235.71779	1018.71994	-2108.13477	74.05425	1032.76627	-2108.42529	290.40524	657.4498	-2087.26532	293.81357	505.70938	-2036.53168	246.21637	308.11905	-2020.88547	273.30246	160.34695	-2096.15021	213.98899	112.1811	-2148.73856	254.70388	77.74377	-1966.77597	27.64016	671.00777	-2085.93063	42.06277	503.92807	-1978.57468	57.11148	333.41377	-2008.51364	50.1131	143.0469	-2078.11676	101.24125	98.09374	-2148.43338	81.23656	76.60561	-1946.4122
